<svg version="1.1" id="Layer_1" xmlns="http://www.w3.org/2000/svg" x="0" y="0" viewBox="0 0 138.9 70" style="enable-background:new 0 0 138.9 70" xml:space="preserve"><style>.st0,.st1{fill-rule:evenodd;clip-rule:evenodd;fill:#5f2ee5}.st1{fill:#4723ac}.st3{fill:#5f2ee5}.st4{fill:#4abea4}</style><path class="st0" d="M31.2 0h2.6c.2 0 .3.2.3.4V46h-3.2V.4c0-.2.1-.4.3-.4z"/><path class="st1" d="M32.6 4.1c15.5.4 22.4 7.8 24.8 19.1-5.7-3.2-10.5-2.4-14.9 0-6.6-2.5-13.3-2.4-20 0-5.3-3.1-10.3-2.6-15 0C8 12.8 18.5 3.8 32.6 4.1z"/><path class="st1" d="M32.6 4.1c7.7 5.9 10.5 12.3 10 19.1-6.1-2.3-12.7-2.6-20 0-.3-7.5 2.4-14 10-19.1z"/><path class="st0" d="M32.4 2.7c15.4.3 22.3 7.7 24.7 19.2-5.7-3.3-10.4-2.4-14.7 0-6.6-2.5-13.2-2.4-19.8 0-5.3-3.1-10.2-2.6-14.9 0C8.1 11.4 18.5 2.4 32.4 2.7z"/><path d="M32.4 2.7c7.7 5.9 10.4 12.4 9.9 19.2-6.1-2.3-12.6-2.6-19.8 0-.2-7.6 2.5-14.2 9.9-19.2z" style="fill-rule:evenodd;clip-rule:evenodd;fill:#4abea4"/><path class="st3" d="M66.1 35.3h.4c.9 0 1.6-.2 2-.5s.7-.9.7-1.6c0-.7-.2-1.2-.6-1.5s-1.1-.5-2-.5h-.5v4.1zm0 7.5h1c1 0 1.7-.2 2.2-.5.5-.4.7-.9.7-1.6 0-.8-.3-1.4-.7-1.9-.5-.4-1.2-.6-2.2-.6h-1v4.6zM63 46V28h3.6c.7 0 1.3 0 1.8.1.4.1.8.2 1.1.3.9.4 1.6 1 2.1 1.8s.7 1.6.7 2.7c0 .8-.1 1.5-.4 2.2-.3.6-.7 1.1-1.3 1.4.8.3 1.5.8 1.9 1.5.5.8.7 1.6.7 2.7 0 .8-.1 1.6-.4 2.4-.3.8-.7 1.4-1.2 1.8-.5.5-1.1.8-1.7 1s-1.5.3-2.7.3L63 46zm14.2-6.9c0 1.1.4 2.1 1.1 2.8.7.8 1.6 1.2 2.6 1.2.9 0 1.8-.4 2.4-1.2s1.1-1.7 1.1-2.7c0-1.1-.4-2-1.1-2.8s-1.5-1.2-2.5-1.2-1.8.4-2.6 1.1c-.7.8-1 1.7-1 2.8zm7.4 6.9v-1.7c-.4.7-.8 1.2-1.5 1.5s-1.5.5-2.4.5c-1.9 0-3.4-.7-4.7-2-1.2-1.4-1.9-3.1-1.9-5.1 0-.9.1-1.9.5-2.7.3-.8.8-1.6 1.4-2.3s1.3-1.2 2.1-1.6c.8-.3 1.6-.5 2.6-.5.9 0 1.7.1 2.4.5.7.3 1.2.8 1.6 1.5v-1.6h2.9V46h-3zm14.5-8.7c-.4-.7-.8-1.2-1.4-1.6s-1.2-.5-1.9-.5c-1 0-1.8.4-2.5 1.2s-1 1.8-1 2.9.3 2.1 1 2.9 1.5 1.1 2.6 1.1c.8 0 1.5-.2 2-.5.5-.4.9-.9 1.2-1.6h3.1c-.4 1.6-1.1 3-2.2 3.9s-2.4 1.4-4.1 1.4c-.9 0-1.8-.2-2.6-.5-.8-.4-1.5-.9-2.2-1.6-.6-.7-1.1-1.4-1.4-2.3-.3-.9-.5-1.8-.5-2.7s.1-1.9.5-2.7.8-1.6 1.4-2.2c.7-.8 1.4-1.3 2.2-1.7.8-.4 1.7-.6 2.7-.6 1.5 0 2.9.5 4 1.4s1.9 2.2 2.2 3.8l-3.1-.1zm8.1-9.3v5.9c.4-.6.9-1.1 1.5-1.4.5-.3 1.2-.4 1.9-.4 1.6 0 2.8.5 3.6 1.6.8 1 1.3 2.5 1.3 4.5V46h-2.9v-6c0-1.9-.2-3.1-.6-3.8s-1.1-1-2-1c-1 0-1.7.4-2.1 1.1-.4.7-.7 2-.7 3.8V46h-2.8V28h2.8zm13 11.1c0 1.1.4 2.1 1.1 2.8.7.8 1.6 1.2 2.6 1.2.9 0 1.8-.4 2.4-1.2.7-.8 1.1-1.7 1.1-2.7 0-1.1-.4-2-1.1-2.8s-1.5-1.2-2.5-1.2-1.8.4-2.6 1.1c-.7.8-1 1.7-1 2.8zm7.5 6.9v-1.7c-.4.7-.8 1.2-1.5 1.5s-1.5.5-2.4.5c-1.9 0-3.4-.7-4.7-2-1.2-1.4-1.9-3.1-1.9-5.1 0-.9.1-1.9.5-2.7.3-.8.8-1.6 1.4-2.3s1.3-1.2 2.1-1.6 1.6-.5 2.6-.5c.9 0 1.7.1 2.4.5.7.3 1.2.8 1.6 1.5v-1.6h2.9V46h-3zm6.3 0V35.3h-1.9v-2.8h1.9v-4.4h2.9v4.4h1.9v2.8h-1.9V46H134zM3.3 36.1h.9c.9 0 1.6-.2 2.1-.6.4-.5.7-1.1.7-1.9 0-.8-.2-1.4-.7-1.8-.5-.4-1.2-.6-2.2-.6h-.9l.1 4.9zm0 9.9H0V28h4.2c1.1 0 1.9.1 2.5.2s1.1.3 1.5.6c.7.5 1.2 1.2 1.6 2 .4.8.6 1.7.6 2.6 0 1.7-.5 3.1-1.6 4.1S6.3 39 4.5 39H3.2l.1 7zm10.2-6.9c0 1.2.3 2.3.9 3 .7.7 1.5 1.1 2.6 1.1s1.9-.4 2.6-1.1c.7-.8 1-1.8 1-3 0-1.1-.3-2.1-1-2.8s-1.5-1.1-2.6-1.1-1.9.4-2.6 1.1c-.5.7-.9 1.7-.9 2.8zm-3 .1c0-.9.2-1.9.5-2.7s.8-1.6 1.4-2.3c.6-.7 1.4-1.2 2.2-1.6.8-.4 1.6-.5 2.5-.5s1.8.1 2.5.5 1.5.8 2.1 1.5c.7.7 1.2 1.5 1.5 2.4.4.9.5 1.8.5 2.7 0 1-.1 2-.5 2.8-.3.8-.8 1.6-1.4 2.3s-1.4 1.2-2.2 1.6c-.8.4-1.7.5-2.6.5s-1.8-.2-2.6-.5c-.8-.4-1.5-.9-2.1-1.6-.6-.7-1.1-1.5-1.4-2.3-.2-1-.4-1.9-.4-2.8zM25.6 46V28h2.9v18h-2.9zm8.3-14.9h-2.8v-3h2.8v3zM31.1 46V32.4h2.8V46h-2.8zm14.5-8.7c-.4-.7-.8-1.2-1.4-1.6-.5-.4-1.2-.5-1.9-.5-1 0-1.8.4-2.5 1.2s-1 1.8-1 2.9.3 2.1 1 2.9c.7.8 1.5 1.1 2.6 1.1.8 0 1.5-.2 2-.5.5-.4.9-.9 1.2-1.6h3.1c-.4 1.6-1.1 3-2.2 3.9-1.1.9-2.4 1.4-4.1 1.4-.9 0-1.8-.2-2.6-.5-.8-.4-1.5-.9-2.2-1.6-.6-.7-1.1-1.4-1.4-2.3-.3-.9-.5-1.8-.5-2.7s.1-1.9.5-2.7.8-1.6 1.4-2.2c.7-.8 1.4-1.3 2.2-1.7s1.7-.6 2.7-.6c1.5 0 2.9.5 4 1.4s1.9 2.2 2.2 3.8l-3.1-.1zm3.6-4.9h3.1l3.1 9.5 3.4-9.5h3.1l-6.9 18h-3l1.8-4.8-4.6-13.2z"/><path class="st4" d="M57.2 61.6v-.2c0-.1 0-.1.1-.2l.1-.2v-.1s.1 0 .1-.1l.1-.1h.5l.1.1.1.2.1.4v.1l.1.1.1.1v.1l.2.2.3.1h.2c.1 0 .1 0 .2.1h1.6c.1 0 .2 0 .3-.1.1 0 .2 0 .3-.1.1 0 .2-.1.2-.1.3-.1.6-.2.8-.3s.5-.3.7-.5l.1-.1c.1 0 .1-.1.2-.1s.1-.1.2-.1l.1-.1.2-.2.2-.2.1-.1.2-.3v-.1s0-.1.1-.2.1-.1.1-.2v-.5s0-.1-.1-.1c0-.1-.1-.1-.1-.1l-.1-.1h-.1c-.1 0-.1-.1-.2-.1l-.1-.1h-.1l-.3-.2h-5.1c-.1 0-.1-.1-.2-.1s-.1-.1-.2-.1-.1-.1-.1-.1l-.2-.2c0-.1-.1-.1-.1-.2v-.2s0-.1-.1-.1v-.6l.2-.4c0-.1.1-.1.2-.3l.3-.3c.1-.1.2-.2.4-.3s.2-.2.3-.2l.4-.4s.1 0 .1-.1.1-.1.2-.2l.2-.2.1-.1.1-.1.1-.1h.1l.6-.3.4-.2.5-.2s.1 0 .1-.1.1-.1.2-.1.1-.1.2-.1.1-.1.1-.1.1 0 .1-.1.1-.1.2-.1.1-.1.2-.1.1-.1.1-.1l.3-.2.1-.1c.1 0 .1 0 .2-.1.1 0 .1 0 .2-.1h.5c.1 0 .1 0 .2.1s.2.1.3.2l.3.3.1.2v.3l-.1.1h-.1l-.1.1-.1.1c-.1 0-.2.1-.3.1-.1 0-.3.1-.4.2s-.3.1-.4.1c-.1 0-.2.1-.2.1h-.2c-.1 0-.2 0-.2.1s-.2 0-.2.1-.1 0-.2 0l-.3.1-.4.2s-.1.1-.2.1-.2.1-.2.1c-.1 0-.2.1-.2.1s-.1.1-.2.1l-.1.1s-.2.1-.3.2-.1.1-.2.1-.1.1-.1.1l-.1.1c-.1 0-.1.1-.2.1s-.1.1-.2.1-.1.1-.1.1-.1 0-.1.1-.1.1-.1.1c0 .1-.1.1-.1.2v.1l-.1.1-.1.1v.2l.1.1.2.1H63c.1 0 .3 0 .4.1h1c.1 0 .2 0 .3.1l.4.1h.1c.1 0 .1.1.2.1s.1.1.2.1.1.1.1.1l.1.1c.1 0 .1.1.2.1s.1.1.2.1c0 .1.1.2.1.3 0 .1.1.2.1.2 0 .1.1.1.1.1v.2c0 .1 0 .1.1.2l-.1.5v.3c0 .1-.1.2-.1.3 0 .1-.1.2-.1.2 0 .1-.1.1-.1.1v.1s0 .1-.1.1l-.1.1-.1.1-.2.2-.2.2-.1.1-.5.4-.2.2c-.1.1-.2.2-.3.2s-.2.2-.3.2-.1.7-.1.8c0 0-.1 0-.2.1s-.2.1-.2.2c-.1.1-.2.1-.2.2s-.1.1-.2.1l-.4.2s-.1 0-.1.1c-.1 0-.2.1-.2.1h-.2c-.1 0-.2 0-.3.1-.1 0-.2.1-.3.1h-.2l-.4.1H59s-.1 0-.1-.1h-.2s-.1-.1-.2-.1-.2-.1-.2-.1c-.1 0-.2-.1-.3-.1l-.1-.1-.2-.2-.2-.2-.1-.1c0-.1-.1-.1-.1-.2l-.1-.1v-.1c0-.1 0-.2-.1-.2v-.8zM68.7 62.4V59.1c0-.1 0-.2.1-.4 0-.1.1-.3.1-.4v-.8l-.2-.1h-.1s-.1 0-.2.1c-.1 0-.1.1-.2.1h-.4l-.2-.1h-.1s-.1 0-.1-.1l-.1-.1c0-.1-.1-.1-.1-.2l-.1-.1v-.4l.1-.1.1-.1v-.1c0-.1.1-.1.2-.2s.2-.1.2-.2h1.4c.1 0 .2 0 .2-.1.1 0 .1-.1.1-.1l.1-.1v-.8l.1-.5.4-.3v-.6l.1-.4v-.3c0-.1 0-.3.1-.5s0-.3.1-.4 0-.2 0-.3l.1-.2.2-.2c.1-.1.1-.1.2-.1s.1 0 .2-.1h.4c.1 0 .1.1.2.1l.1.1h.1l.1.1.1.2v.8s0 .1-.1.2c0 .1-.1.2-.1.3s-.1.2-.1.3c0 .1-.1.1-.1.2v.1s0 .1-.1.1 0 .1-.1.1 0 .1 0 .1v.2c0 .1-.1.2-.1.4s-.1.3-.1.4-.2.1-.2.2v.2c0 .1 0 .1-.1.2 0 .1 0 .1.1.2l.1.1c.3 0 .6-.1.8-.1h1.3l.2.1.1.1v.4l-.1.2-.3.2-2.1.4c-.1 0-.1 0-.2.1 0 0-.1 0-.1.1 0 0-.1 0-.1.1l-.1.1v.1s0 .1-.1.2c0 .1 0 .1-.1.2v3c0 .1 0 .1.1.2v.5c0 .1 0 .1.1.2l.1.2c.1 0 .1.1.2.1l.1.1h.2l.3-.1h.1s.1 0 .1-.1l.1-.1c.1-.1.2-.1.2-.2.1 0 .1-.1.2-.1s.1-.1.1-.1c.1 0 .1-.1.2-.2s.2-.1.3-.2.2-.1.3-.2l.2-.2h.4l.2.1.2.2V61.1l-.1.1-.1.1c-.1.1-.1.1-.1.2s-.1.1-.1.1v.2s0 .1-.1.1l-.4.1c0 .1-.1.1-.2.2s-.2.1-.2.2-.2.1-.2.2-.1.1-.1.1c-.1.1-.2.1-.3.2-.1 0-.1.1-.2.1h-.3l-.1.1s-.1.1-.2.1-.1.1-.2.1c0 0-.1 0-.1.1h-.5c-.1 0-.1 0-.2.1H69.5s-.1 0-.1-.1l-.1-.1-.2-.2c0-.1 0-.1-.1-.2l-.1-.1v-.1c0-.1 0-.1-.1-.1s-.1-.1-.1-.2c0 .1 0 .1 0 0zM77.8 62.4l-.3.3-.2.2s-.1 0-.1.1c-.1 0-.1.1-.2.1s-.2.1-.2.1c-.1 0-.1.1-.2.1s-.1 0-.2.1-.1.1-.2.1H76l-.3-.1h-.1c-.1 0-.1 0-.2-.1s-.1 0-.2-.1h-.1l-.2-.1c0-.1-.1-.1-.1-.1l-.1-.1-.1-.1c0-.1-.1-.2-.1-.3 0-.1-.1-.2-.1-.3V61.9c0-.1 0-.2-.1-.3v-2.2c0-.1 0-.2.1-.3s0-.2.1-.2v-.1s.1-.1.1-.2.1-.1.1-.2v-.2s0-.1.1-.2c0-.1 0-.1.1-.2s0-.1 0-.1v-.1s0-.1.1-.1 0-.1.1-.1v-.1c0-.1.1-.1.1-.2l.1-.1v-.1s.1-.1.1-.2.1-.2.2-.3c.1-.1.1-.2.2-.4l.2-.2.1-.1.1-.1.2-.1h.4c.1 0 .1 0 .1.1h.5s.1 0 .1.1l.2.2.2.2.1.1c.1 0 .2.1.3.1.1 0 .2 0 .3.1h.2s.1 0 .1.1c0 0 .1 0 .1.1l.1.1.1.2v.4l-.1.3V61.2s0 .1.1.2 0 .1.1.2v.2s0 .1.1.1l.1.1.1.1.1.1h.1l.2.1H80.8c.1 0 .1-.1.2-.1s.1-.1.2-.1H81.5l.2.2.1.2v.2l-.1.2-.1.1c-.1 0-.1.1-.2.1-.1.1-.1.1-.2.1s-.1.1-.1.1l-.1.1c-.1 0-.1.1-.2.1s-.1 0-.2.1h-.1c-.1 0-.2 0-.3.1h-.5c-.1 0-.2 0-.4-.1s-.2-.1-.3-.2l-.1-.1c-.1 0-.1-.1-.2-.1s-.1-.1-.2-.1-.1-.1-.1-.1l-.2-.2-.1-.1-.1-.3h-.2zm-2.5-1.6v.3l.1.1v.2l.1.2.3.3H76.1l.2-.1c.1 0 .1-.1.2-.2l.3-.3.3-.3c.1-.1.1-.2.2-.2v-.1s0-.1.1-.2c0-.1 0-.1.1-.2s0-.1 0-.1V60c0-.1 0-.1.1-.2v-1.6l-.1-.3v-.1s0-.1-.1-.1l-.1-.2-.1-.1-.1-.1-.1-.1-.1-.1h-.1l-.1.1-.1.1-.1.1-.1.1s0 .1-.1.1 0 .1 0 .1l-.1.2-.1.1s-.1.1-.1.2-.1.1-.1.2v.1l-.1.3-.2.2-.1.1V60.8z"/><path class="st4" d="M81.3 62.9v-3.2c0-.1 0-.2.1-.3 0-.1 0-.2.1-.3V56.7l-.1-.3v-.1c0-.1.1-.1.1-.2s.1-.2.1-.2l.1-.3.1-.1.1-.1.1-.1h1s.1 0 .1.1l.1.1.1.1c0 .1.1.1.1.2v1l.3-.3.3-.2h.1s.1 0 .1-.1l.1-.1c.1 0 .1-.1.2-.1s.2-.1.3-.1.2-.1.2-.1h.7c.1 0 .1 0 .2.1l.2.2c.1 0 .1.1.2.1s.1.1.1.1c.1.1.1.1.1.2s.1.1.1.2v.1l-.2.2-.2.1h-.7l-.1.1h-.2s-.1.1-.2.1-.2.1-.3.1c-.1 0-.2.1-.3.1-.1 0-.2.1-.2.1l-.2-.1s0 .1-.1.1-.1.1-.1.2-.1.1-.2.2-.1.1-.1.2l-.2.3s0 .1-.1.1c0 .1-.1.1-.1.2s-.1.1-.1.2 0 .1-.1.1V61.5c0 .1 0 .1.1.2l.2.4v.4l-.1.2c0 .2-.1.3-.1.3l-.1.1-.1.1-.2.1h-.2c-.1 0-.1 0-.2.1 0 0-.1 0-.1-.1H81.8s-.1 0-.1-.1c-.1 0-.1-.1-.2-.1l-.2-.2z"/><path class="st4" d="M87.7 62.4V59.1c0-.1 0-.2.1-.4 0-.1.1-.3.1-.4v-.8l-.2-.1h-.1s-.1 0-.2.1c-.1 0-.1.1-.2.1h-.5l-.2-.1h-.1s-.1 0-.1-.1l-.1-.1c0-.1-.1-.1-.1-.2L86 57v-.4l.1-.1.1-.1v-.1c0-.1.1-.1.2-.2s.2-.1.2-.2H88c.1 0 .2 0 .2-.1.1 0 .1-.1.1-.1l.1-.1v-.8l.1-.5.1-.3v-.6l.1-.4v-.3c0-.1 0-.3.1-.5s0-.3.1-.4 0-.2 0-.3l.1-.2.2-.2c.1-.1.1-.1.2-.1s.1 0 .2-.1h.4c.1 0 .1.1.2.1l.1.1h.1l.1.1.1.2v.8s0 .1-.1.2c0 .1-.1.2-.1.3s-.1.2-.1.3c0 .1-.1.1-.1.2v.1s0 .1-.1.1 0 .1-.1.1 0 .1 0 .1v.2c0 .1-.1.2-.1.4s-.1.3-.1.4-.1.3-.1.3v.2c0 .1 0 .1-.1.2 0 .1 0 .1.1.2l.1.1c.3 0 .6-.1.8-.1h1.3l.2.1.1.1v.4l-.1.2-.3.2-1.8.3c-.1 0-.1 0-.2.1 0 0-.1 0-.1.1 0 0-.1 0-.1.1l-.1.1v.1s0 .1-.1.2c0 .1 0 .1-.1.2v3c0 .1 0 .1.1.2v.5c0 .1 0 .1.1.2l.1.2c.1 0 .1.1.2.1l.1.1h.2l.3-.1h.1s.1 0 .1-.1l.1-.1c.1-.1.2-.1.2-.2.1 0 .1-.1.2-.1s.1-.1.1-.1c.1 0 .1-.1.2-.2s.2-.1.3-.2.2-.1.3-.2l.2-.2h.4l.2.1.2.2V61.1l-.1.1-.1.1c-.1.1-.1.1-.1.2s-.1.1-.1.1v.2s0 .1-.1.1l-.3.1c0 .1-.1.1-.2.2s-.2.1-.2.2-.2.1-.2.2-.1.1-.1.1c-.1.1-.2.1-.3.2-.1 0-.1.1-.2.1h-.3l-.1.1s-.1.1-.2.1-.1.1-.2.1c0 0-.1 0-.1.1h-.5c-.1 0-.1 0-.2.1H88.6s-.1 0-.1-.1l-.1-.1-.2-.2-.2-.2c-.1-.1 0-.1 0-.1v-.1c0-.1 0-.1-.1-.1s-.1-.1-.2-.2c.1.1 0 .1 0 0zM96.9 61.6v-.2c0-.1 0-.1.1-.2l.1-.2v-.1s.1 0 .1-.1l.1-.1h.7l.1.1.1.2.1.4v.1l.1.1.1.1v.1l.2.2.3.1h.2c.1 0 .1 0 .2.1h1.6c.1 0 .2 0 .3-.1.1 0 .2 0 .3-.1.1 0 .2-.1.2-.1.3-.1.6-.2.8-.3s.5-.3.7-.5l.1-.1c.1 0 .1-.1.2-.1s.1-.1.2-.1l.1-.1.2-.2.2-.2.1-.1.2-.3v-.1s0-.1.1-.2.1-.1.1-.2v-.5s0-.1-.1-.1c0-.1-.1-.1-.1-.1l-.1-.1h-.1c-.1 0-.1-.1-.2-.1l-.1-.1h-.1l-.3-.2h-5.1c-.1 0-.1-.1-.2-.1s-.1-.1-.2-.1-.1-.1-.1-.1l-.2-.2c0-.1-.1-.1-.1-.2v-.2s0-.1-.1-.1v-.6l.2-.4c0-.1.1-.1.2-.3l.3-.3c.1-.1.2-.2.4-.3s.2-.2.3-.2l.4-.4s.1 0 .1-.1.1-.1.2-.2l.2-.2.1-.1.1-.1.1-.1h.1l.6-.3.4-.2.5-.2s.1 0 .1-.1c0 0 .1-.1.2-.1s.1-.1.2-.1.1-.1.1-.1.1 0 .1-.1c.1 0 .1-.1.2-.1s.1-.1.2-.1.1-.1.1-.1l.3-.2.1-.1c.1 0 .1 0 .2-.1.1 0 .1 0 .2-.1h.5c.1 0 .1 0 .2.1s.2.1.3.2l.3.3.1.2-.1.3-.1.1h-.1l-.1.1-.1.1c-.1 0-.2.1-.3.1-.1 0-.3.1-.4.2s-.3.1-.4.1c-.1 0-.2.1-.2.1h-.2c-.1 0-.2 0-.2.1s-.2 0-.2.1-.1 0-.2 0l-.3.1-.4.2s-.1.1-.2.1-.2.1-.2.1c-.1 0-.2.1-.2.1s-.1.1-.2.1l-.1.1s-.1.1-.2.1-.1.1-.2.1-.1.1-.1.1l-.1.1c-.1 0-.1.1-.2.1s-.1.1-.2.1-.1.1-.1.1-.1 0-.1.1-.1.1-.1.1c0 .1-.1.1-.1.2v.1l-.1.1-.1.1v.2l.1.1.2.1h3.1c.1 0 .3 0 .4.1h1c.1 0 .2 0 .3.1l.4.1h.1c.1 0 .1.1.2.1s.1.1.2.1.1.1.1.1l.1.1c.1 0 .1.1.2.1s.1.1.2.1c0 .1.1.2.1.3 0 .1.1.2.1.2 0 .1.1.1.1.1v.2c0 .1 0 .1.1.2l-.1.5v.3c0 .1-.1.2-.1.3 0 .1-.1.2-.1.2 0 .1-.1.1-.1.1v.1s0 .1-.1.1l-.1.1-.1.1-.2.2-.2.2-.1.1-.5.4-.2.2c-.1.1-.2.2-.3.2s-.2.2-.3.2-.1.1-.2.2c0 0-.1 0-.2.1s-.2.1-.2.2c-.1.1-.2.1-.2.2s-.1.1-.2.1l-.4.2s-.1 0-.1.1c-.1 0-.2.1-.2.1h-.2c-.1 0-.2 0-.3.1-.1 0-.2.1-.3.1h-.2l-.4.1h-2.1s-.1 0-.1-.1h-.2s-.1-.1-.2-.1-.2-.1-.2-.1c-.1 0-.2-.1-.3-.1l-.1-.1-.2-.2-.2-.2-.1-.1c0-.1-.1-.1-.1-.2L97 62v-.1c0-.1 0-.2-.1-.2v-.4.3zM111.2 62.4l-.3.3-.2.2s-.1 0-.1.1c-.1 0-.1.1-.2.1s-.2.1-.2.1c-.1 0-.1.1-.2.1s-.1 0-.2.1-.1.1-.2.1h-.1l-.3-.1h-.1c-.1 0-.1 0-.2-.1s-.1 0-.2-.1h-.1l-.2-.1c0-.1-.1-.1-.1-.1l-.1-.1-.1-.1c0-.1-.1-.2-.1-.3 0-.1-.1-.2-.1-.3V61.9c0-.1 0-.2-.1-.3v-2.2c0-.1 0-.2.1-.3s0-.2.1-.2v-.1s.1-.1.1-.2.1-.1.1-.2v-.2s0-.1.1-.2c0-.1 0-.1.1-.2s0-.1 0-.1v-.1s0-.1.1-.1 0-.1.1-.1v-.1c0-.1.1-.1.1-.2l.1-.1v-.1s.1-.1.1-.2.1-.2.2-.3c.1-.1.1-.2.2-.4l.2-.2.1-.1.1-.1.2-.1h.4c.1 0 .1 0 .1.1h.5s.1 0 .1.1l.2.2.2.2.1.1c.1 0 .2.1.3.1.1 0 .2 0 .3.1h.2s.1 0 .1.1c0 0 .1 0 .1.1l.1.1.1.2v.4l-.1.3V61.2s0 .1.1.2 0 .1.1.2v.2s0 .1.1.1l.1.1.1.1.1.1h.1l.2.1H114.3c.1 0 .1-.1.2-.1s.1-.1.2-.1H115l.2.2.1.2v.2l-.1.2-.1.1c-.1 0-.1.1-.2.1-.1.1-.1.1-.2.1s-.1.1-.1.1l-.1.1c-.1 0-.1.1-.2.1s-.1 0-.2.1h-.1c-.1 0-.2 0-.3.1h-.5c-.1 0-.2 0-.4-.1s-.2-.1-.3-.2l-.1-.1c-.1 0-.1-.1-.2-.1s-.1-.1-.2-.1-.1-.1-.1-.1l-.2-.2-.1-.1-.1-.2h-.3zm-2.4-1.6v.3l.1.1v.2l.1.2.3.3H109.6l.2-.1c.1 0 .1-.1.2-.2l.3-.3.3-.3c.1-.1.1-.2.2-.2v-.1s0-.1.1-.2c0-.1 0-.1.1-.2s0-.1 0-.1V60c0-.1 0-.1.1-.2v-1.6l-.1-.3v-.1s0-.1-.1-.1l-.1-.2-.1-.1-.1-.1-.1-.1-.1-.1h-.1l-.1.1-.1.1-.1.1-.1.1s0 .1-.1.1 0 .1 0 .1l-.1.2-.1.1s-.1.1-.1.2-.1.1-.1.2v.1l-.1.3-.1.2-.1.1V60.8zM113.9 56v-.2s0-.1.1-.2.1-.2.1-.2l.1-.1h.1s.1 0 .1-.1l.1-.1.3-.1h.6s.1 0 .1.1l.1.1.1.1.1.1.2.3v1.1s0 .1.1.3c0 .2.1.4.2.6s.1.5.2.7c.1.2.1.4.1.6 0 0 0 .1.1.1v.2c0 .1.1.1.1.2s.1.2.1.3.1.2.1.3c0 .1.1.2.1.2h.1l.1-.1v-.1c0-.1.1-.1.1-.2s.1-.1.1-.2v-.2c0-.1 0-.1.1-.2 0-.1.1-.1.1-.2v-.2s0-.1.1-.1 0-.1.1-.1v-.2c0-.1 0-.2.1-.2 0-.1.1-.2.1-.3v-.2s0-.1.1-.2c0-.1.1-.3.1-.4 0-.2.1-.3.1-.4 0-.1.1-.2.1-.2v-.1c0-.1 0-.1.1-.2 0-.1.1-.1.1-.2v-.2c0-.1 0-.1.1-.2 0-.1.1-.1.1-.2v-.1l.1-.2.1-.1.1-.1.1-.1h.1s.1 0 .1-.1.1 0 .1-.1h.4s.1 0 .1.1c.1 0 .1.1.2.1l.1.2v.1c0 .1 0 .1-.1.2v.2c0 .1-.1.2-.1.4-.1.1-.1.2-.2.3-.1.1-.1.2-.2.3s-.1.2-.2.4v.1s0 .1-.1.1 0 .1-.1.1v.1s-.1.1-.1.3-.1.3-.2.5-.1.4-.2.6c-.1.2-.1.4-.2.6-.1.2-.1.3-.2.5s-.1.2-.1.3v.1s0 .1-.1.1 0 .1-.1.1V60.8c0 .1 0 .2-.1.3 0 .1-.1.2-.1.3V62.8s0 .1-.1.1c0 0 0 .1-.1.1s-.1.1-.2.2l-.2.2-.1.1-.3.4h-.3l-.1-.1-.2-.3v-.1s0-.1-.1-.1c0-.1-.1-.1-.1-.2V63c0-.1-.1-.2-.1-.2 0-.1-.1-.2-.1-.3V62.2s0-.2-.1-.2c0-.1-.1-.2-.1-.2v-.1l-.1-.3v-.1c0-.1 0-.2-.1-.2 0-.1-.1-.2-.1-.2V60.6c0-.1 0-.2-.1-.3 0-.1-.1-.2-.1-.3v-.2s0-.1-.1-.1v-.4c0-.1-.1-.2-.1-.2l-.1-.2v-.1l-.1-.5c-.1-.1-.1-.2-.2-.3-.1-.1-.1-.2-.2-.3 0 0 0-.1-.1-.1 0-.1-.1-.1-.1-.2s-.1-.1-.1-.2-.1-.1-.1-.1V56zM121.7 62.6v-2c0-.1 0-.2-.1-.3V59.4c0-.1 0-.2-.1-.3l-.1-.4V58l-.2-.4v-.2s0-.1-.1-.1V56.5s.1-.1.1-.2.1-.1.1-.1l.1-.1.1-.1.1-.1h.1l.2-.1h.2c.1 0 .1 0 .2-.1h.1s.1.1.2.1.1.1.2.1.1.1.1.1l.2.2v.1s0 .1.1.1 0 .1.1.1v.4c0 .1 0 .1-.1.2s0 .2-.1.2v.4c0 .1 0 .1-.1.2V60.5s.1.1.1.2.1.1.1.2V61.2s0 .1.1.1V61.9c0 .1 0 .2-.1.3 0 0 0 .1-.1.1 0 0 0 .1-.1.1s0 .1-.1.1l-.1.1-.1.1-.1.1h-.7l-.2-.1-.1-.1h.1zm-.5-9.7v-.2c0-.1 0-.2.1-.3s.1-.2.1-.3l.1-.2.1-.1s.1-.1.2-.1.1-.1.2-.1.2-.1.3-.1c0 0 .1 0 .1.1.1 0 .2.1.2.1s.1 0 .1.1c.1 0 .1.1.2.1l.1.1.1.1c.1 0 .1.1.2.1v.6l-.2.2-.1.1-.1.1-.2.2c-.1 0-.2.1-.2.1h-.9l-.2-.1-.1-.2v-.3zM125 62.3V62s0-.1.1-.1l.1-.1v-.1l.1-1.1-.1-1 .1-.5-.1-1.6v-.3c0-.2 0-.3-.1-.4 0-.1-.1-.3-.1-.4V55.4l.3-.2.2-.1h.4c.1 0 .2.1.3.1.1 0 .1.1.2.1s.1.1.1.1l.1.1.1.2v.1l-.1.4v1.2h.1l.3-.4s0-.1.1-.1.1-.1.1-.1l.1-.1.1-.1.2-.3c0-.1.1-.1.1-.1l.1-.1h.1s0-.1.1-.1l.1-.1.1-.1H128.5s.1 0 .1.1l.1.1.1.1.1.1.1.1.1.1c.1.1.1.1.2.1l.1.1v.1l.1.2c0 .1.1.1.1.2s.1.2.1.3.1.2.1.3V58c0 .1 0 .1.1.2 0 .1.1.2.1.2V59c0 .1 0 .2.1.3 0 .1 0 .2.1.3v.4s0 .1.1.2c0 .1.1.2.1.2l.1.3V61.5s0 .1.1.1c0 0 0 .1.1.1s.1.1.1.2.1.1.1.2.1.1.1.1l.1.2v.4s0 .1-.1.1c0 .1-.1.1-.1.2-.1 0-.1.1-.2.1 0 0-.1 0-.1.1s-.1 0-.1 0l-.3.1H129.9s-.1 0-.1-.1l-.1-.1s-.1 0-.1-.1h-.1l-.2-.2c0-.1-.1-.2-.1-.3 0-.1 0-.1-.1-.2s0-.1 0-.1v-.2s0-.1-.1-.1v-.4l-.1-.4v-1c0-.1 0-.2-.1-.3 0-.1 0-.2-.1-.2 0-.1 0-.1-.1-.2l-.1-.3V58.4s0-.1-.1-.2-.1-.1-.1-.2-.1-.1-.1-.1l-.2-.2h-.1l-.1.1-.1.1-.1.1-.1.1-.1.1v.1l-.4.2c-.1.3-.2.6-.3.8-.1.3-.1.5-.2.8V62.7l-.1.1-.2.2-.2.2-.1.1-.2.1h-.6s-.1 0-.1-.1-.1-.1-.1-.2l-.1-.1V62.7s0-.1-.1-.1v-.3zM131.7 66.2v-.6l.2-.2h.2l.1.2v.6c.1.1.1.2.2.4.1.1.1.3.2.4l.1.1s.1.1.1.2.1.1.1.2.1.1.1.1c.1.1.1.2.2.3.1.1.1.2.2.2l.1.1c.1.1 0 0 .1 0 .1.1.1.1.2.1.1.1.1.1.2.1 0 0 .1 0 .2.1h.8c.1 0 .1 0 .2-.1.1 0 .2-.1.2-.1l.2-.1.1-.1.1-.1.1-.1.1-.1c0-.1.1-.1.1-.2s.1-.2.1-.2 0-.1.1-.1 0-.1.1-.1c0 0 0-.1.1-.2 0-.1.1-.2.1-.4 0-.1.1-.3.1-.4s.1-.2.1-.3v-3.2l-.1-.2V62.2l-.1-.2-1.2 1.2-.1.1-.1.1c-.1 0-.1.1-.2.1s-.1.1-.1.1l-.1.1c-.1 0-.1.1-.2.1s-.1.1-.2.1h-1c-.1 0-.1 0-.2-.1 0 0-.1 0-.1-.1s-.1 0-.1-.1l-.1-.1-.2-.3-.1-.2v-2.2l.1-.2v-.7l.1-.2v-.1s0-.1.1-.2v-.1s0-.1.1-.1l.1-.3.2-.4s.1-.1.1-.2.1-.2.1-.4.1-.3.1-.4c0-.1.1-.2.1-.2s.1-.1.1-.2c.1-.1.1-.2.2-.3.1-.1.1-.2.2-.3.1-.1.1-.2.2-.2l.1-.1.2-.2.2-.2.1-.1h.1c.1 0 .2 0 .2-.1.1 0 .2-.1.3-.1.1 0 .2-.1.2-.1h.2l.2.1s.1.1.2.1.2.1.3.2c.1.1.2.1.3.2s.1.1.2.1l.3.2.1.1.1.1.2.1.1.1.2.2c.1.1.1.2.2.2 0 .1.1.1.1.1v1.2c0 .1-.1.2-.1.3s-.1.2-.1.3V63.6l-.1.3v.8c0 .1 0 .3-.1.5 0 .2-.1.3-.1.5V66.5s0 .1-.1.2c0 .1-.1.1-.1.2V67.6c0 .1-.1.1-.1.3s-.1.3-.2.4c-.1.2-.2.3-.2.4-.1.1-.1.2-.1.3l-.1.2-.1.1h-.1l-.1.1s-.1.1-.2.1c-.1.1-.2.1-.3.1s-.2.1-.2.1h-.1s-.1 0-.1.1l-.2.1-.2.1h-.8l-.2-.1h-.1s-.1 0-.2-.1c-.1 0-.1-.1-.2-.1s-.1-.1-.1-.1l-.3-.2-.2-.2-.1-.1s-.1 0-.1-.1v-.1l-.1-.3-.2-.4v-.1c0-.1 0-.1-.1-.2 0-.1 0-.1-.1-.2s0-.1 0-.1-.1-.1-.1-.2 0-.2-.1-.2l-.1-.3v-.7zm1.6-5.2V62l.2.2h.5c.1 0 .1 0 .2-.1.1 0 .2-.1.2-.1s.1 0 .2-.1h.1l.1-.1.1-.1.2-.2c.1-.1.1-.2.2-.2s.1-.1.1-.1l.4-.4v-.1s0-.1.1-.1l.1-.1V59.5l-.1-.2V59s0-.1-.1-.2l-.1-.3-.2-.3-.1-.2v-.1s0-.1-.1-.2c0-.1-.1-.1-.1-.2v-.1l-.1-.2h-.1V57l-.1.1-.1.1s-.1.1-.1.2-.1.1-.1.1 0 .1-.1.1c0 0 0 .1-.1.1 0 .1-.1.1-.1.2s-.1.1-.1.1v.1s0 .1-.1.1l-.1.1v.1s0 .1-.1.1-.1.1-.1.2-.1.1-.1.2-.1.1-.1.1v.2l-.1.1v.6l-.1.2v.9z"/></svg>